<?xml version="1.0" encoding="utf-8"?>
<!-- Generator: Adobe Illustrator 23.0.3, SVG Export Plug-In . SVG Version: 6.00 Build 0)  -->
<svg version="1.1" id="Calque_1" xmlns="http://www.w3.org/2000/svg" xmlns:xlink="http://www.w3.org/1999/xlink" x="0px" y="0px"
	 viewBox="0 0 100 100" style="enable-background:new 0 0 100 100;" xml:space="preserve">
<style type="text/css">
	.st0{fill:#466FB5;}
	.st1{fill:#E24232;}
	.st2{fill:#2AB197;}
	.st3{fill:#F1C602;}
</style>
<g>
	<path class="st0" d="M66.9,16c2.4,0,4.4-2,4.4-4.4c0-2.6-2-4.4-4.4-4.4c-2.4,0-4.4,1.9-4.4,4.4C62.5,14,64.4,16,66.9,16z"/>
	<path class="st1" d="M87.7,68c-2.4,0-4.4,1.9-4.4,4.4c0,2.4,2,4.4,4.4,4.4c2.4,0,4.4-2,4.4-4.4C92.1,69.8,90,68,87.7,68z"/>
	<path class="st2" d="M31.3,84c-2.4,0-4.4,1.9-4.4,4.4c0,2.4,2,4.4,4.4,4.4c2.4,0,4.4-2,4.4-4.4C35.7,85.9,33.6,84,31.3,84z"/>
	<path class="st3" d="M16.8,31.3c0-2.6-2-4.4-4.4-4.4c-2.4,0-4.4,1.9-4.4,4.4c0,2.4,2,4.4,4.4,4.4C14.8,35.7,16.8,33.7,16.8,31.3z"
		/>
	<path class="st0" d="M52.2,47.2c0.1,0.3,0.3,0.4,0.6,0.2c2.1-1,4.1-2.1,6.1-3.3c3.8-2.3,7.5-4.8,10.7-8c1.4-1.4,2.6-2.9,3.4-4.8
		c1.3-2.9,0.9-5.5-1.2-7.9c-0.8-0.8-1.7-1.6-2.6-2.2c-4.1-3.1-8.6-5.5-13.8-6c-2.3-0.2-4.4,0.1-6.4,1.3c-2.4,1.5-3.3,3.9-3.3,6.7
		c0,1.8,0.4,3.6,0.8,5.4C47.7,35,49.7,41.2,52.2,47.2z"/>
	<path class="st1" d="M85.3,56.7c-0.3-2.9-1.7-5-4.4-6.1c-1.3-0.5-2.7-0.7-4.2-0.7c-5.1,0-10.2,0.5-15.2,1.4
		c-2.5,0.4-4.9,0.9-7.4,1.6c-0.6,0.2-0.6,0.2-0.4,0.8c0.2,0.5,0.3,1.1,0.5,1.6c1.8,5,3.8,9.9,6.7,14.5c1.5,2.3,3.1,4.4,5.4,6
		c1.2,0.8,2.5,1.4,4,1.4c1.9,0.1,3.6-0.7,5-1.9c2.7-2.2,5-4.8,6.9-7.7c1.8-2.9,3.2-6.1,3.3-9.7C85.4,57.5,85.3,57.1,85.3,56.7z"/>
	<path class="st2" d="M50.4,60.9c-0.7-2.5-1.5-4.9-2.4-7.3c-0.1-0.4-0.3-0.4-0.6-0.3c-0.6,0.3-1.3,0.6-1.9,0.9
		c-4.8,2.3-9.4,4.9-13.6,8.2c-2,1.6-3.8,3.4-5.1,5.7c-0.9,1.6-1.3,3.3-0.9,5.1c0.4,1.7,1.3,3,2.5,4.1c2.6,2.4,5.4,4.5,8.7,6
		c2.8,1.3,5.7,2.2,8.9,2c2.2-0.1,4.2-0.8,5.7-2.4c1.5-1.6,1.9-3.6,1.9-5.9c0-0.3,0-0.7-0.1-1.2C52.9,70.8,51.9,65.8,50.4,60.9z"/>
	<path class="st3" d="M46.5,49.4c0.3-0.1,0.5-0.2,0.3-0.6c-1.8-4.8-3.9-9.5-6.6-13.9c-1.6-2.6-3.4-5-5.7-6.9c-1.2-1-2.5-1.8-4.1-2
		c-2.3-0.4-4.3,0.4-6,1.9c-3.1,2.8-5.7,6-7.5,9.8c-1.3,2.7-2.2,5.4-2,8.5c0.2,2.9,1.4,5.2,4.2,6.5c1.4,0.6,2.9,0.8,5.2,0.8
		c2.8-0.1,6.3-0.5,9.7-1.1C38.2,51.6,42.4,50.6,46.5,49.4z"/>
</g>
</svg>
